<!--?xml version="1.0" encoding="utf-8"?-->
<!-- Generator: Adobe Illustrator 15.1.0, SVG Export Plug-In . SVG Version: 6.00 Build 0)  -->

<svg version="1.1" id="_x32_" xmlns="http://www.w3.org/2000/svg" xmlns:xlink="http://www.w3.org/1999/xlink" x="0px" y="0px" width="512px" height="512px" viewBox="0 0 512 512" style="width: 128px; height: 128px; opacity: 1;" xml:space="preserve">
<style type="text/css">

	.st0{fill:#4B4B4B;}

</style>
<g>
	<path class="st0" d="M450.891,253.828c-7.047,0.016-13.531,2-19.234,4.672c-8.593,4.047-15.671,9.719-20.796,14.375
		c-4.188,3.828-6.922,6.891-7.922,8.031c-1.281,1.219-2.359,1.984-2.984,2.313l-0.484,0.203l-0.25-0.188l-1.359-1.469l-0.172-0.203
		l-0.016-0.031c-0.094-0.188-3.516-4.594-3.563-15.438v-88.891c0-32.766-26.547-59.328-59.328-59.344h-88.891
		c-6.219,0-10.313-1.172-12.734-2.141c-1.203-0.5-2-0.938-2.406-1.188l-0.266-0.188l-0.047-0.031l-0.203-0.172
		c-1.016-0.781-1.484-1.359-1.656-1.609c0.094-0.359,0.75-1.656,2.516-3.484c1.719-1.516,7.219-6.453,12.906-13.672
		c3.359-4.25,6.797-9.313,9.484-15.031s4.672-12.188,4.688-19.25C258.157,27.344,230.813,0,197.063,0s-61.109,27.344-61.109,61.094
		c0,7.063,2,13.531,4.672,19.25c4.063,8.594,9.719,15.656,14.391,20.781c3.859,4.234,6.922,6.969,8.047,7.953
		c1.203,1.266,1.953,2.328,2.281,2.953l0.203,0.5c-0.156,0.219-0.563,0.781-1.656,1.609l-0.219,0.172l-0.031,0.031
		c-0.406,0.25-4.859,3.484-15.422,3.516H59.329C26.547,117.875,0,144.438,0,177.203v88.891c-0.047,17.219,6.75,26.109,7.891,27.359
		l0.031-0.016c1.797,2.25,3.844,4.281,6.406,5.844c2.688,1.656,6.016,2.688,9.328,2.656c3.344,0,6.469-0.938,9.188-2.375
		c2.734-1.438,5.125-3.313,7.422-5.531l0.359-0.359l0.297-0.359h0.016c0.344-0.422,5.25-6.094,12.078-11.359
		c3.422-2.625,7.313-5.156,11.172-6.922c3.875-1.781,7.688-2.766,11.031-2.75c11.797,0,22.422,4.75,30.172,12.5
		c7.734,7.75,12.484,18.344,12.484,30.156c0,11.797-4.766,22.406-12.484,30.156c-7.75,7.734-18.375,12.5-30.172,12.5
		c-3.453,0-7.391-1.047-11.406-2.938c-6-2.797-11.938-7.406-16.188-11.297c-2.141-1.953-3.859-3.703-5.016-4.953l-1.313-1.438
		l-0.313-0.359l-0.063-0.063l-0.297-0.359l-0.359-0.344c-2.297-2.219-4.703-4.125-7.438-5.531c-2.703-1.438-5.844-2.391-9.172-2.375
		c-3.313-0.031-6.641,1-9.313,2.656c-2.578,1.547-4.625,3.594-6.438,5.844l-0.016-0.016c-0.063,0.078-0.203,0.25-0.297,0.359
		c-0.016,0.016-0.016,0.031-0.031,0.031C5.891,338.859-0.046,347.609,0,363.781v88.875C0,485.438,26.547,512,59.329,512h88.891
		c16.141,0.047,24.891-5.875,26.938-7.578l0.016,0.016c0.047-0.047,0.078-0.094,0.125-0.125c0.078-0.063,0.219-0.188,0.281-0.219
		l-0.016-0.031c2.25-1.797,4.297-3.844,5.844-6.406c1.656-2.688,2.688-6,2.656-9.313c0.016-3.344-0.953-6.469-2.375-9.188
		c-1.438-2.719-3.313-5.125-5.531-7.422l-0.344-0.359l-0.359-0.297l-0.016-0.016c-0.422-0.344-6.078-5.25-11.344-12.094
		c-2.641-3.406-5.172-7.297-6.938-11.172c-1.781-3.859-2.766-7.672-2.75-11.016c0-11.813,4.75-22.422,12.484-30.172
		c7.75-7.734,18.359-12.484,30.172-12.484c11.797,0,22.406,4.75,30.156,12.484c7.734,7.75,12.484,18.359,12.5,30.172
		c0,3.438-1.047,7.391-2.938,11.406c-2.797,6-7.391,11.938-11.297,16.188c-1.953,2.125-3.703,3.859-4.953,5.016l-1.438,1.328
		l-0.359,0.297l-0.063,0.063l-0.375,0.313l-0.344,0.344c-2.203,2.297-4.094,4.703-5.531,7.438c-1.422,2.703-2.375,5.828-2.375,9.172
		c-0.016,3.313,1.016,6.625,2.672,9.313c1.547,2.563,3.578,4.609,5.844,6.406l-0.016,0.031c0.047,0.031,0.203,0.156,0.266,0.219
		c0.047,0.031,0.094,0.078,0.141,0.125v-0.016c2.063,1.703,10.813,7.625,26.969,7.578h88.859c32.781,0,59.328-26.563,59.328-59.344
		v-88.875c0.016-6.234,1.172-10.313,2.156-12.734c0.484-1.203,0.938-2,1.203-2.422l0.188-0.281l0.031-0.016l0.172-0.234
		c0.766-1.016,1.328-1.469,1.594-1.625l0.766,0.328c0.641,0.375,1.594,1.078,2.688,2.125c1.453,1.672,6.438,7.219,13.719,12.969
		c4.25,3.359,9.297,6.766,15.015,9.484c5.719,2.672,12.203,4.656,19.25,4.672c33.75-0.016,61.094-27.359,61.109-61.109
		C511.984,281.188,484.641,253.844,450.891,253.828z" style="fill: rgb(75, 75, 75);"></path>
</g>
</svg>
