<svg xmlns="http://www.w3.org/2000/svg" width="128" height="128"><path d="M112.722 63.458c-1.761.004-3.382.5-4.808 1.168-2.148 1.012-3.918 2.43-5.199 3.594a25.67 25.67 0 00-1.98 2.008c-.32.304-.59.496-.747.578l-.12.05-.063-.046-.34-.368-.043-.05-.004-.008c-.023-.047-.879-1.149-.89-3.86V44.302c0-8.192-6.637-14.832-14.832-14.836H61.473c-1.555 0-2.578-.293-3.184-.536a4.42 4.42 0 01-.601-.297l-.067-.047-.011-.007-.051-.043a1.94 1.94 0 01-.414-.403c.023-.09.187-.414.629-.87A26.525 26.525 0 0061 23.843c.84-1.062 1.7-2.328 2.371-3.757.672-1.43 1.168-3.047 1.172-4.813C64.54 6.837 57.703.001 49.266.001c-8.438 0-15.278 6.836-15.278 15.274 0 1.765.5 3.382 1.168 4.812 1.016 2.149 2.43 3.914 3.598 5.195a25.241 25.241 0 002.012 1.989c.3.316.488.582.57.738l.05.125c-.038.055-.14.195-.413.402l-.055.043-.008.008c-.101.062-1.214.871-3.855.879H14.832C6.637 29.47 0 36.111 0 44.302v22.223c-.012 4.304 1.687 6.527 1.973 6.84l.007-.005c.45.563.961 1.07 1.602 1.461a4.452 4.452 0 002.332.664 4.92 4.92 0 002.297-.593c.683-.36 1.281-.829 1.855-1.383l.09-.09.074-.09h.004a21.799 21.799 0 013.02-2.84c.855-.656 1.828-1.288 2.793-1.73.969-.445 1.922-.691 2.758-.687 2.949 0 5.605 1.187 7.543 3.125a10.608 10.608 0 013.12 7.539c0 2.949-1.191 5.601-3.12 7.539a10.628 10.628 0 01-7.543 3.125c-.864 0-1.848-.262-2.852-.735-1.5-.7-2.984-1.851-4.047-2.824a21.323 21.323 0 01-1.254-1.238l-.328-.36-.078-.09-.016-.015-.074-.09-.09-.086c-.574-.555-1.176-1.031-1.86-1.383-.675-.36-1.46-.598-2.293-.594a4.43 4.43 0 00-2.328.664c-.644.387-1.156.899-1.61 1.461l-.003-.004c-.016.02-.051.063-.075.09-.004.004-.004.008-.007.008-.417.512-1.902 2.7-1.89 6.742v22.219c0 8.195 6.637 14.836 14.832 14.836h22.223c4.035.012 6.223-1.469 6.734-1.895l.004.004c.012-.011.02-.023.032-.03.019-.017.054-.048.07-.056l-.004-.007c.562-.45 1.074-.961 1.46-1.602.415-.672.673-1.5.665-2.328.004-.836-.238-1.617-.594-2.297-.36-.68-.828-1.281-1.383-1.856l-.086-.09-.09-.074-.003-.004c-.106-.086-1.52-1.312-2.836-3.023-.66-.852-1.293-1.824-1.735-2.793-.445-.965-.691-1.918-.687-2.754 0-2.953 1.187-5.605 3.12-7.543a10.617 10.617 0 017.544-3.121c2.949 0 5.601 1.188 7.539 3.121a10.638 10.638 0 013.125 7.543c0 .86-.262 1.848-.735 2.852-.7 1.5-1.848 2.984-2.824 4.046-.488.532-.926.965-1.238 1.254l-.36.332-.09.075-.015.015-.094.079-.086.086c-.551.574-1.024 1.175-1.383 1.86-.355.675-.594 1.456-.594 2.292a4.479 4.479 0 00.668 2.328c.387.641.895 1.153 1.461 1.602l-.004.008c.012.007.051.039.067.054.012.008.023.02.035.032v-.004c.516.425 2.703 1.906 6.742 1.894h22.215c8.195 0 14.832-6.64 14.832-14.836V90.947c.004-1.559.293-2.579.539-3.184.121-.3.234-.5.3-.605l.048-.07.007-.005.043-.058c.192-.254.332-.367.399-.406l.191.082c.16.093.399.27.672.53.364.419 1.61 1.806 3.43 3.243 1.063.84 2.324 1.692 3.754 2.371 1.43.668 3.05 1.164 4.812 1.168 8.438-.004 15.274-6.84 15.278-15.277-.004-8.438-6.84-15.274-15.278-15.278z" fill="#62c54e"/></svg>